/* XPM */
static char *_7eeccabd6654199e502b2cec920f462uTDCiwHPfAvVXS5Y[] = {
/* columns rows colors chars-per-pixel */
"32 32 129 2 ",
"   c None",
".  c #010203",
"X  c #050609",
"o  c #07090C",
"O  c #090B0E",
"+  c #0C0E11",
"@  c #0E1113",
"#  c #101316",
"$  c #141619",
"%  c #16191C",
"&  c #181C1F",
"*  c #1A1E21",
"=  c #1D2124",
"-  c #212427",
";  c #292625",
":  c #222629",
">  c #26292D",
",  c #282C2F",
"<  c #392F29",
"1  c #3E322C",
"2  c #2A2E32",
"3  c #2E3336",
"4  c #3B3735",
"5  c #36393B",
"6  c #383C3F",
"7  c #42352E",
"8  c #4C372F",
"9  c #4E443C",
"0  c #51473E",
"q  c #53493F",
"w  c #734737",
"e  c #24354C",
"r  c #43484B",
"t  c #564C42",
"y  c #5A4F43",
"u  c #5D5347",
"i  c #5E5549",
"p  c #4A4F53",
"a  c #4D5256",
"s  c #53585C",
"d  c #62574B",
"f  c #655A4E",
"g  c #695D51",
"h  c #6F6054",
"j  c #716356",
"k  c #756658",
"l  c #77685A",
"z  c #7A6C5D",
"x  c #636669",
"c  c #66696C",
"v  c #7D6F60",
"b  c #93573D",
"n  c #995D44",
"m  c #AE6C4A",
"M  c #B27357",
"N  c #B3795D",
"B  c #847564",
"V  c #8A7967",
"C  c #8C7B69",
"Z  c #917E6C",
"A  c #B57E62",
"S  c #BF805B",
"D  c #94826F",
"F  c #968370",
"G  c #9A8673",
"H  c #9D8977",
"J  c #9F8B78",
"K  c #BC8469",
"L  c #A18D79",
"P  c #B78874",
"I  c #A6917C",
"U  c #A9947E",
"Y  c #C48963",
"T  c #C8906A",
"R  c #C09077",
"E  c #CE9973",
"W  c #CC977A",
"Q  c #D09B77",
"!  c #D39F7C",
"~  c #D3A07D",
"^  c #587799",
"/  c #AC9780",
"(  c #A49488",
")  c #B29C85",
"_  c #BCA58C",
"`  c #929FAB",
"'  c #91A1B2",
"]  c #B3ADAC",
"[  c #B4B5B6",
"{  c #B8BABB",
"}  c #C19284",
"|  c #CFA185",
" . c #D0A287",
".. c #DBAA8B",
"X. c #C5A790",
"o. c #CFA594",
"O. c #C5AB92",
"+. c #CAAF96",
"@. c #D0A190",
"#. c #D1A897",
"$. c #D8AE94",
"%. c #D5AC9B",
"&. c #CEB39A",
"*. c #DDB194",
"=. c #D3B69E",
"-. c #DDB49C",
";. c #DFB89F",
":. c #E0B79D",
">. c #D7B0A6",
",. c #DCB6A0",
"<. c #D9BCA4",
"1. c #DCBDAA",
"2. c #DCBEBA",
"3. c #E2BDA5",
"4. c #E6C4AE",
"5. c #E5C5B2",
"6. c #E5C9BB",
"7. c #E9CBBC",
"8. c #88AED0",
"9. c #A7B7C6",
"0. c #CCD5DE",
"q. c #D6D6D7",
"w. c #E5CBC2",
"e. c #DEDEE0",
"r. c #ECECEC",
"t. c #E1E8F0",
"y. c #E0EDF9",
"u. c #EDF6FE",
"i. c #F2FAFF",
/* pixels */
"                        G Z V V / ) (                           ",
"                      ) L D C L _ &._ )                         ",
"                    &._ ) H B U ) &.) O.V                       ",
"                  <.<.5.=.H v / / _ L O._                       ",
"                  &.X._ / Z k U v L B I q                       ",
"                  _ L H Z B l G 1.+.) O.H                       ",
"                  L C Z B z j v U ) ) L U                       ",
"                  B z v z j g z G H I U B                       ",
"                  l k j f g g k G G g d j                       ",
"                  g j g i i d j F F h 7                         ",
"                    k g t 0 i f z J U )                         ",
"                    z z u t 4 t d B ) g                         ",
"                    B B j g y < ; t f                           ",
"                    B B z j j d 5                               ",
"                  * u.V B k k d l                               ",
"                = 2 * u.#.V z g G                               ",
"            - # % - & & u.i.C O.y.#                             ",
"        & # + # % & % % & u.u.] t.# # O + & & r.                ",
"    = $ # @ @ + @ % % & & = i.0.2 # # @ # + * * = [             ",
"  , # @ # # @ $ $ o $ & & * & ^ 8.$ # # $ = * * = *             ",
"x : = # # @ # + $ % # & & & = e ' % $ # % > % * % %             ",
"a - & # # $ # $ # $ % % * = * = 9.& % % + * & - * % 5           ",
"a = $ $ # # $ @ # $ $ & % # * & * % % % * = # : . : =           ",
"s 3 $ # # # # $ % # $ % & & % * * * % % * = . : = - & q.        ",
"  r % + # $ $ # . $ # % & & * # & % * $ & & . * :.5.@.&         ",
"  3 : + >.5.;.8 X & % $ % & = * . o $ $ & & & K 2.3.3.=.#.      ",
"  p # # # # O 7.E O $ % % & & & & X % $ - $ o M 7.:.6.1.P {     ",
"  - & #.6.5.w.6.:.b O $ & & & * & . % & & O n :.3.4...w.-.$     ",
"  6 $ . $.W $.=...Q T w # & & & * + & % + . b :.9 % * $ * , %   ",
"  + : } 7 X A N E ..! Y m 1 % & O O o & * = = * 2 - : : * = * e.",
"  - - # #. .K P 5.6.$.;.| Q ~ S S Y u.& = : : - = & : * * : $ c ",
"  3 * $ + $ % # # } w.6.6.7.7.3.5.:.u.` : : : : * : @ = : * * = "
};
