/* XPM */
static char *_e529a722f674f8ae322c53e931b2351U8lVRq4YjT4hNlvL[] = {
/* columns rows colors chars-per-pixel */
"16 16 111 2 ",
"   c None",
".  c #000102",
"X  c #050609",
"o  c #0C0E11",
"O  c #0D1012",
"+  c #0E1112",
"@  c #0E1113",
"#  c #0E1114",
"$  c #0F1215",
"%  c #101316",
"&  c #111417",
"*  c #121518",
"=  c #131518",
"-  c #141619",
";  c #151719",
":  c #15181A",
">  c #15181B",
",  c #16191C",
"<  c #171A1C",
"1  c #161A1D",
"2  c #171B1D",
"3  c #161A1E",
"4  c #181B1E",
"5  c #181B1F",
"6  c #181C1E",
"7  c #191C1E",
"8  c #181C1F",
"9  c #191D20",
"0  c #1B1E21",
"q  c #1B1E22",
"w  c #1C1F23",
"e  c #1C2023",
"r  c #1D2024",
"t  c #1D2125",
"y  c #1E2225",
"u  c #1F2226",
"i  c #202326",
"p  c #212427",
"a  c #2C2522",
"s  c #222629",
"d  c #24282B",
"f  c #272A2E",
"g  c #2E3336",
"h  c #2F3437",
"j  c #34393C",
"k  c #314154",
"l  c #43484B",
"z  c #44494C",
"x  c #564C42",
"c  c #594E43",
"v  c #5E5549",
"b  c #65594D",
"n  c #665A4E",
"m  c #685C50",
"M  c #6A5E51",
"N  c #6C5F53",
"B  c #706255",
"V  c #746457",
"C  c #77685A",
"Z  c #786A5B",
"A  c #7B6D5E",
"S  c #65676B",
"D  c #B77653",
"F  c #817162",
"G  c #837363",
"H  c #847464",
"J  c #887766",
"K  c #8A7967",
"L  c #8C7A69",
"P  c #8F7D6B",
"I  c #917E6C",
"U  c #BF815D",
"Y  c #94826F",
"T  c #988572",
"R  c #9B8774",
"E  c #A18D79",
"W  c #A9947E",
"Q  c #AA957F",
"!  c #C48963",
"~  c #C89478",
"^  c #D09B77",
"/  c #D39F7C",
"(  c #395A80",
")  c #A99786",
"_  c #B29D85",
"`  c #B39D85",
"'  c #B7A188",
"]  c #BAA38A",
"[  c #D7A684",
"{  c #C3AA91",
"}  c #C5AB92",
"|  c #D4AA91",
" . c #DDAF94",
".. c #D7BBA2",
"X. c #DABBA2",
"o. c #D8B3A8",
"O. c #DDBFB2",
"+. c #E2BBA3",
"@. c #DEC0B7",
"#. c #E4C3AE",
"$. c #E1C4B4",
"%. c #EACCBE",
"&. c #A9B9C9",
"*. c #DBBDC0",
"=. c #CBCBCC",
"-. c #E6CCC4",
";. c #C4DAEE",
":. c #E4F0FB",
">. c #E8F2FD",
",. c #EFF7FE",
"<. c #F1F9FF",
/* pixels */
"            T J ] _             ",
"          X.] P _ '             ",
"        S Q Y Z ( ) L           ",
"        I H A B E Q m           ",
"          B n N T N             ",
"          C x c H {             ",
"          K n v a               ",
"        g >.F B :.              ",
"    j 8 > 4 ,.} ;.+ 1           ",
"  o + % 4 - w &.k % - w =       ",
"p > & & - & w e & > y y y       ",
"l $ = = & 8 4 w $ 1 i s 1 =.    ",
"z X ! % - = 8 8 e & e s o.X.    ",
"0 & | U / - > w 1 - 1 D +.~ -.  ",
"8 *.@.$. .^ + 4 > > . 8 i p i - ",
"h + o o O.$.#.%.[ <.y d f i > > "
};
