/* XPM */
static char *_e5b65dcf593462fed749c63f96dda0eBnYygwX5uOTyJTL7[] = {
/* columns rows colors chars-per-pixel */
"64 64 185 2 ",
"   c None",
".  c #020305",
"X  c #040608",
"o  c #07090B",
"O  c #090C0E",
"+  c #0C0E11",
"@  c #0E1114",
"#  c #111316",
"$  c #141619",
"%  c #16191C",
"&  c #181B1F",
"*  c #1F1817",
"=  c #221C1B",
"-  c #25211F",
";  c #1A1E21",
":  c #1D2124",
">  c #212326",
",  c #222629",
"<  c #25292C",
"1  c #2A2728",
"2  c #382F29",
"3  c #342B27",
"4  c #3B312B",
"5  c #37302C",
"6  c #2A2E32",
"7  c #2D3235",
"8  c #35393C",
"9  c #363738",
"0  c #43362F",
"q  c #433A34",
"w  c #5D3D32",
"e  c #4D443B",
"r  c #50463D",
"t  c #54483E",
"y  c #6C4336",
"u  c #393D41",
"i  c #243853",
"p  c #3D4245",
"a  c #3B4755",
"s  c #334B69",
"d  c #414649",
"f  c #44494C",
"g  c #4C4E4E",
"h  c #564C42",
"j  c #594E44",
"k  c #524F4D",
"l  c #5B5145",
"z  c #5E5549",
"x  c #4A4F53",
"c  c #4E5357",
"v  c #54575A",
"b  c #61564A",
"n  c #665A4E",
"m  c #6C5A4E",
"M  c #7D5041",
"N  c #6A5E52",
"B  c #765D50",
"V  c #6E6054",
"C  c #726356",
"Z  c #756658",
"A  c #77685A",
"S  c #7A6C5D",
"D  c #555B61",
"F  c #5F5F62",
"G  c #626669",
"H  c #7D6F60",
"J  c #7F7061",
"K  c #8E553D",
"L  c #9E5F42",
"P  c #945A42",
"I  c #8B5A49",
"U  c #8B6759",
"Y  c #9C6957",
"T  c #9C6956",
"R  c #A76648",
"E  c #B3765B",
"W  c #B97955",
"Q  c #AF7356",
"!  c #847464",
"~  c #8A7967",
"^  c #8D7B6A",
"/  c #867768",
"(  c #917E6C",
")  c #A67664",
"_  c #B27A63",
"`  c #BF815D",
"'  c #94826F",
"]  c #968471",
"[  c #998673",
"{  c #9D8976",
"}  c #9F8B78",
"|  c #BD8365",
" . c #BA866D",
".. c #A18D79",
"X. c #BB8C77",
"o. c #A6917C",
"O. c #A9947E",
"+. c #C0825D",
"@. c #C58B65",
"#. c #C78E69",
"$. c #C9916B",
"%. c #CB9572",
"&. c #C9967A",
"*. c #D19C78",
"=. c #D09B77",
"-. c #D3A07E",
";. c #3D5E83",
":. c #7A7F83",
">. c #7D8387",
",. c #6D91B5",
"<. c #91908E",
"1. c #AC9780",
"2. c #AE9982",
"3. c #A79583",
"4. c #B29D85",
"5. c #B69F88",
"6. c #B6A088",
"7. c #BBA48B",
"8. c #AFA49F",
"9. c #99A3AC",
"0. c #BABABB",
"q. c #A9ABAD",
"w. c #CA9E86",
"e. c #C8A48B",
"r. c #D4A383",
"t. c #D4A98D",
"y. c #DBAC8C",
"u. c #D6A58A",
"i. c #C4AB92",
"p. c #C9AE95",
"a. c #CFA594",
"s. c #D4A392",
"d. c #DAAE92",
"f. c #D5AB9B",
"g. c #D5AB97",
"h. c #CDB39A",
"j. c #CAB097",
"k. c #DDB195",
"l. c #D3B79F",
"z. c #DCB49C",
"x. c #E0B79D",
"c. c #D5AEA1",
"v. c #D6B2A5",
"b. c #DAB5A2",
"n. c #DBBBA4",
"m. c #D9B5AA",
"M. c #DBBBAB",
"N. c #D6BAA2",
"B. c #DCBDB3",
"V. c #C2ADA0",
"C. c #E2BDA5",
"Z. c #E2BFAA",
"A. c #DFC1B6",
"S. c #E3C1AC",
"D. c #E3C5B4",
"F. c #E4C8BB",
"G. c #E9CBBD",
"H. c #E8C8B7",
"J. c #98ADC1",
"K. c #88AED0",
"L. c #B7BDC3",
"P. c #BBCBDA",
"I. c #B9D3EA",
"U. c #C7C7C8",
"Y. c #CCD5DE",
"T. c #DCDCDD",
"R. c #D4D5D7",
"E. c #E6CCC3",
"W. c #E9CEC2",
"Q. c #E3CBCA",
"!. c #EBD1C7",
"~. c #EFD8CD",
"^. c #EED7CC",
"/. c #C9D9E9",
"(. c #CCDEF1",
"). c #CFE0F2",
"_. c #D2E3F3",
"`. c #E5E5E5",
"'. c #ECECED",
"]. c #E2EEFA",
"[. c #EDF6FE",
"{. c #E9F1FA",
"}. c #F1F9FF",
"|. c gray95",
" X c #F0EDEC",
/* pixels */
"                                                ^ ' ^ ^ ! ! ! ~ { o.O.O...'                                                     ",
"                                              { { ] ' ( ( ~ ! { O.4.7.6.6.O.o.                                                  ",
"                                            2.O...{ [ ' ' ~ ( o.4.7.p.p.7.7.4.[                                                 ",
"                                          7.7.4.O.} { ' ( ~ ] 4.6.7.p.j.7.7.7.O.F                                               ",
"                                        h.p.7.5.2.O.} ' ~ / { O.6.6.i.p.6.6.7.7.]                                               ",
"                                      8.N.h.p.p.i.7.O.[ ! ! { 4.2.6.7.h.2.6.7.h.4.                                              ",
"                                      n.N.M.C.C.N.j.1.' ! H ..O.2.O.6.n.O.4.7.h.h.!                                             ",
"                                      l.l.S.S.S.n.7.o.' ! S } 2.2.2.O.' o.O.7.j.7...                                            ",
"                                    V.h.p.l.h.p.7.1.] ^ J A [ 2.6.0 H n h 1.6.2.3 5                                             ",
"                                    p.i.7.4.4.2.1.{ ' ^ S Z ( 4.{ [ % o.O.O.j.S } n                                             ",
"                                    e.7.1.o.....{ ' ^ ! S A J 4.N.p.7.l.p.2.o.3.f }                                             ",
"                                    4.O...{ { { ( ^ ! ! A Z Z 5.7.h.n.j.6.7.} 1.4.3.F                                           ",
"                                    o.} ' ( ' ( ^ ! ! S Z Z Z ..O.2.6.6.6.6...{ 4...k                                           ",
"                                    { ' ~ ~ ^ ^ J J S S V Z Z ( ..o.1.2.2.7.O.7.O.'                                             ",
"                                    ^ ! ! J J ! S S A Z N C A ! [ { } ....6.1.1.] S                                             ",
"                                    ! H S A Z S C Z V V N V Z J ] [ { { [ i.O.o.! V                                             ",
"                                    A A A C C Z V V V n n V Z S ] { { [ ^ l q 5 ! z                                             ",
"                                    N C C C V N n n n z n n V H ' [ [ { S b N ] H                                               ",
"                                    v B C V N m z z z z z n V A ' [ [ ..] S 7.] C                                               ",
"                                      C C V V n z l z z z n n Z ~ ' ' N V { / b N                                               ",
"                                      V C C V n j h h h l z n C A ^ [ O.Z b O.[                                                 ",
"                                      b A A C N j h h r r l n n V ! ' o.7.7.7.V                                                 ",
"                                        Z S S C n h h h q e h z n V ! { 4.7.2.                                                  ",
"                                        A J J A n j j l r 4 0 e h n V ~ o.o...                                                  ",
"                                        A ! ! ! C b z b l e 3 > 4 r z C ( S A                                                   ",
"                                        A ~ ~ ! S V n m b z e 0 2 3 2 r 0 2                                                     ",
"                                        A ~ ~ / ! V V V C n z l e 2                                                             ",
"                                      < U.~ / ! H C V C C V n l e 5                                                             ",
"                                    , . [.! ^ / ! S C A A V n l e N                                                             ",
"                                  8 7 & (.[.v.^ ~ H A A A C m l V N                                                             ",
"                                0., 7 : & (.{.[.' ^ J ! J C V z } 0.q.                                                          ",
"                              `.> ; < , & % I.{.[.A.] [ / A V o.O./.$                                                           ",
"                          R.; O % % : ; ; % ; ).}.[.[. X] S C i.4.).O #                                                         ",
"                      >.: ; % O ; # ; : % ; % % ].[.}.}.`.~ p.i.0.).o @ # O $ ; g `.                                            ",
"                :.; # # @ & % O % # ; ; ; % % ; ; {.[.}.[.{.7.R.].).# # # @ O O O $ % & & 0.                                    ",
"            >.: $ # @ @ @ @ # @ X o $ ; ; % % % & ; {.[.}.[.a J.]._.% + # # # + X # % & ; & & :                                 ",
"          , & $ # # @ @ + @ @ @ @ X + % % % % ; ; ; ; ].[._.I.Y.9 ).$ # # # @ @ @ # & ; & : ; ; : X '.                          ",
"      8 # # # @ @ @ @ + @ @ @ @ @ ; ; $ ; $ ; % : ; ; : {.a /.g 9.P.# # # + @ # # $ & & : & ; & : & :                           ",
"    u < & # @ + # @ @ @ @ @ # # @ O @ % $ & $ ; ; ; ; ; & s ,./.L.s $ # @ # > # # $ O , : : ; : : % : 8.                        ",
"  v 7 < ; $ @ @ + @ # # @ # # # $ # # X & % ; & % ; ; ; ; < O /.K.a # # # # # % $ % : : ; : : ; : O ; 9.                        ",
"  p 7 : & ; # # # + + # # + + # $ % % $ + ; ; % & & : ; : : + D P.u & $ % @ # $ $ ; : : % ; : : : X ;                           ",
"  u 7 : ; & $ @ # # # # # # # @ # # $ $ % # & % ; ; ; ; ; ; % ,.;.>.& $ % $ @ # $ @ , ; O & : : > ; > ; R.                      ",
"|.7 < : ; ; $ # # # # # # # # # @ # % % % $ $ O & ; : ; ; : ; : U.i $ $ $ % % @ & @ , : % : : < : : & # &                       ",
"U.8 < 6 & $ & $ # $ $ $ # # # # # @ $ % % % ; % O ; ; : ; & : ; ; J.$ & $ % ; % & : : ; $ % , > & O : > ;                       ",
"R.x 6 : & & $ @ # # # $ # + # # # + # $ $ ; ; % & $ & ; ; & ; ; ; J.@ & $ & % ; $ : > & & @ > , # X + > &                       ",
"T.v p ; & # $ $ $ $ # $ $ $ o # % # # $ $ $ $ ; % & $ X ; & : > : & O ; & $ & ; ; : : & $ X , , . < & & ; ;                     ",
"T.u p < $ @ @ $ # # $ # $ $ # X $ $ # # % $ ; % % & ; $ # ; : : : & . ; $ ; % # ; : : & @ $ , > & > : & ; ;                     ",
"  d 7 , # # @ # # # $ # # + # # O $ $ # # $ % % ; & % ; & * : & ; ; O ; & & ; % & & : ; O % , < % O > t n & ,                   ",
"  G x < $ @ + # # $ $ $ $ @ $ @ . $ % $ # # $ & & & % & & % $ : ; : # : & & # & & > : % o % & & T x.S.G.z.M.C.&                 ",
"  c f x # & @ @ o + $ @ @ % @ $ # # % % $ $ $ % & & & & & & % O & & % & & : # $ % & > & . > > 1 x.G.n. .) e.e._ :               ",
"  G d x < & . . B.B.s.b.r.I @ + X . $ % % $ $ $ & % ; & & : & % . ; & : : # # % & ; ; & . > # r.~.B.E u.C.D.E.N.t.^.            ",
"  <.d u < ; $ # . _ a.G.G.A.t.L @ . $ $ % $ $ $ & % & & & & : & & @ & : : $ # % $ & : % X > E !.G.r.H.~.v.@.5.p.X.e             ",
"  c v 7 ; & $ # # $ # @ o.D.W.G.| O @ % $ % $ $ $ % % & & & : % & % : > % $ $ & % ; ; & ; + &.| k.G.^.=.y.S.M.E.f.f.v.          ",
"  8 f p & $ # # # + & Q P 2 Q.D.W.r.. O $ % % % $ % & % & & ; ; & % . & $ % $ % % ; & o ; L E y.z.*.C.!.Q.v.X.U 9 @ : :         ",
"  f ; d < + @ N c.n.b.g.S.b.f.$.@.$.@.K @ # $ $ $ % % % & & & ; ; & O : $ % $ $ ; $ $ X 4 #.&.C.k.S.!.W.y y.y.!.x.z.Q.:         ",
"  D & : 7 Q.B.s.B.v.g.w.M.D.!.W.S.k.=.R K O @ * $ % $ % & & & & & ; $ # $ & & & & & $ X K $.r.M.S.z.k.y.x.!.d.% % < & ; f       ",
"  D p + & B.s.E * . ) $.W +.| &.$.-.y.$.@.R 0 + + % % * & & & & ; & & # % ; % % & $ + . K %.S.S.C._ ; & ; ; ; 6 > ; < ; % &     ",
"  x 6 7 + + { s.s.b.m.f.M.M.D.H.D.x.y.y.y.*.K K o @ % & % ; & : & & ; # ; % ; @ O X . w R $.U ; ; ; & ; , ; : ; > ; & 6 > % u   ",
"  c $ 7 < B.v.f.w.w._ M ) X.s.D.C.y.d.*.r.-.$.R W 3 $ @ & % % & % + # @ @ @ + # + @ $ ; ; ; ; : ; > > ; , > < ; & % > $ , , ;   ",
"  c 7 O < : o X + + O ) #.&.#.*.u.k.d.%.*.-.%.$.W W +.R y 1 - = # * G P./.(.& ; & ; ; ; ; ; : : > < , : < > ; , ; , > & O & :   ",
"  v < < > # # @ m.f.w.M.s.s.&.M.D.H.W.D.r.t.t.d.@.$.@.E Q K R L R W W ..{.{./.: : > , > , : < ; ; < : < > , ; : ; & < , & + ;   ",
"    < > $ $ $ $ O @ # @ @ O X O m.D.F.D.A.z.l.S.k.z.n.S.S.H.C.=.$.$.$.-.[.[.}.: , , , , , < , : ; < < % , , , ; , ; , < % $ >   ",
"    8 , : % # O + # @ # # $ $ # @ w j.Q.^.E.!.!.F.G.G.H.G.G.H.x.H.S.y.x.[.}.[., , > , , > , < > : ; , , $ : , , ; ; ; : : $ &   ",
"    f : & & % # # $ # # $ $ @ O @ @ . Y l.S.A.F.F.A.G.A.D.x.x.x.S.S.S.d.e.}.}.< : > , , < < , : < > ; , , + > , > , ; ; : $ & U."
};
